<svg width="85" height="17" viewBox="0 0 85 17" fill="none" xmlns="http://www.w3.org/2000/svg">
<path d="M29.0073 14.317H27.8267V6.49036L25.459 7.35999V6.29358L28.8232 5.0304H29.0073V14.317ZM36.3071 14.317H35.1265V6.49036L32.7588 7.35999V6.29358L36.123 5.0304H36.3071V14.317ZM41.0425 8.2804C41.563 7.6414 42.2401 7.3219 43.0737 7.3219C44.5252 7.3219 45.2573 8.14075 45.27 9.77844V14.317H44.0957V9.77209C44.0915 9.27698 43.9772 8.91093 43.7529 8.67395C43.5329 8.43697 43.188 8.31848 42.7183 8.31848C42.3374 8.31848 42.0031 8.42004 41.7153 8.62317C41.4276 8.82629 41.2033 9.0929 41.0425 9.42297V14.317H39.8682V4.56702H41.0425V8.2804ZM51.8398 9.12463H52.7222C53.2765 9.11617 53.7124 8.97017 54.0298 8.68665C54.3472 8.40312 54.5059 8.02014 54.5059 7.53772C54.5059 6.45439 53.9663 5.91272 52.8872 5.91272C52.3794 5.91272 51.9731 6.05872 51.6685 6.35071C51.368 6.63847 51.2178 7.02144 51.2178 7.49963H50.0435C50.0435 6.76754 50.3101 6.16028 50.8433 5.67786C51.3807 5.1912 52.062 4.94788 52.8872 4.94788C53.759 4.94788 54.4424 5.17851 54.9375 5.63977C55.4326 6.10103 55.6802 6.74215 55.6802 7.56311C55.6802 7.96513 55.549 8.35445 55.2866 8.73108C55.0285 9.10771 54.6751 9.38912 54.2266 9.57532C54.7344 9.73612 55.1258 10.0027 55.4009 10.3751C55.6802 10.7475 55.8198 11.2024 55.8198 11.7399C55.8198 12.5693 55.549 13.2273 55.0073 13.714C54.4657 14.2006 53.7611 14.444 52.8936 14.444C52.026 14.444 51.3193 14.2091 50.7734 13.7394C50.2318 13.2697 49.9609 12.6497 49.9609 11.8795H51.1416C51.1416 12.3662 51.3003 12.7555 51.6177 13.0475C51.9351 13.3395 52.3604 13.4855 52.8936 13.4855C53.4606 13.4855 53.8944 13.3374 54.1948 13.0411C54.4953 12.7449 54.6455 12.3196 54.6455 11.7653C54.6455 11.2278 54.4805 10.8152 54.1504 10.5275C53.8203 10.2397 53.3442 10.0916 52.7222 10.0831H51.8398V9.12463ZM63.2275 10.3751C63.2275 11.7504 62.9927 12.7724 62.5229 13.441C62.0532 14.1097 61.319 14.444 60.3203 14.444C59.3343 14.444 58.6043 14.1181 58.1304 13.4664C57.6564 12.8105 57.411 11.833 57.394 10.5338V8.96594C57.394 7.60754 57.6289 6.59827 58.0986 5.93811C58.5684 5.27795 59.3047 4.94788 60.3076 4.94788C61.3021 4.94788 62.0342 5.26737 62.5039 5.90637C62.9736 6.54114 63.2148 7.52291 63.2275 8.85168V10.3751ZM62.0532 8.76917C62.0532 7.7747 61.9136 7.05107 61.6343 6.59827C61.355 6.14124 60.9128 5.91272 60.3076 5.91272C59.7067 5.91272 59.2687 6.13912 58.9937 6.59192C58.7186 7.04472 58.5768 7.74084 58.5684 8.6803V10.5592C58.5684 11.5579 58.7122 12.2963 59 12.7745C59.292 13.2485 59.7321 13.4855 60.3203 13.4855C60.9001 13.4855 61.3296 13.2612 61.6089 12.8126C61.8924 12.3641 62.0405 11.6573 62.0532 10.6925V8.76917ZM65.957 7.44885L65.9888 8.21057C66.4924 7.61812 67.1715 7.3219 68.0264 7.3219C68.987 7.3219 69.6408 7.69006 69.9878 8.42639C70.2163 8.09631 70.5125 7.82971 70.8765 7.62659C71.2446 7.42346 71.6784 7.3219 72.1777 7.3219C73.6842 7.3219 74.4502 8.11959 74.4756 9.71497V14.317H73.3013V9.78479C73.3013 9.2939 73.1891 8.92786 72.9648 8.68665C72.7406 8.4412 72.3639 8.31848 71.835 8.31848C71.3991 8.31848 71.0373 8.44967 70.7495 8.71204C70.4618 8.97017 70.2946 9.3193 70.248 9.7594V14.317H69.0674V9.81653C69.0674 8.81783 68.5786 8.31848 67.6011 8.31848C66.8309 8.31848 66.304 8.64644 66.0205 9.30237V14.317H64.8462V7.44885H65.957ZM77.5288 14.317H76.3545V7.44885H77.5288V14.317ZM76.2593 5.62708C76.2593 5.43665 76.3164 5.27584 76.4307 5.14465C76.5492 5.01347 76.7227 4.94788 76.9512 4.94788C77.1797 4.94788 77.3532 5.01347 77.4717 5.14465C77.5902 5.27584 77.6494 5.43665 77.6494 5.62708C77.6494 5.8175 77.5902 5.9762 77.4717 6.10315C77.3532 6.2301 77.1797 6.29358 76.9512 6.29358C76.7227 6.29358 76.5492 6.2301 76.4307 6.10315C76.3164 5.9762 76.2593 5.8175 76.2593 5.62708ZM80.5249 7.44885L80.563 8.31213C81.0877 7.65198 81.7733 7.3219 82.6196 7.3219C84.0711 7.3219 84.8032 8.14075 84.8159 9.77844V14.317H83.6416V9.77209C83.6374 9.27698 83.5231 8.91093 83.2988 8.67395C83.0788 8.43697 82.7339 8.31848 82.2642 8.31848C81.8833 8.31848 81.549 8.42004 81.2612 8.62317C80.9735 8.82629 80.7492 9.0929 80.5884 9.42297V14.317H79.4141V7.44885H80.5249Z" fill="#0C0B0B"/>
<path d="M8.42383 0.95105C4.01245 0.95105 0.423828 4.53967 0.423828 8.95105C0.423828 13.3624 4.01245 16.951 8.42383 16.951C12.8352 16.951 16.4238 13.3624 16.4238 8.95105C16.4238 4.53967 12.8352 0.95105 8.42383 0.95105ZM12.2285 13.089C12.0985 13.219 11.9279 13.2844 11.7572 13.2844C11.5865 13.2844 11.4158 13.219 11.2859 13.089L7.95251 9.75574C7.82715 9.6311 7.7572 9.46167 7.7572 9.28442V4.95105C7.7572 4.5824 8.05579 4.28442 8.42383 4.28442C8.79187 4.28442 9.09045 4.5824 9.09045 4.95105V9.00842L12.2285 12.1464C12.4891 12.4071 12.4891 12.8284 12.2285 13.089Z" fill="#0C0B0B"/>
</svg>
