<svg width="78" height="17" viewBox="0 0 78 17" fill="none" xmlns="http://www.w3.org/2000/svg">
<path d="M26.6655 9.12463H27.5479C28.1022 9.11617 28.5381 8.97017 28.8555 8.68665C29.1729 8.40312 29.3315 8.02014 29.3315 7.53772C29.3315 6.45439 28.792 5.91272 27.7129 5.91272C27.2051 5.91272 26.7988 6.05872 26.4941 6.35071C26.1937 6.63847 26.0435 7.02144 26.0435 7.49963H24.8691C24.8691 6.76754 25.1357 6.16028 25.6689 5.67786C26.2064 5.1912 26.8877 4.94788 27.7129 4.94788C28.5846 4.94788 29.2681 5.17851 29.7632 5.63977C30.2583 6.10103 30.5059 6.74215 30.5059 7.56311C30.5059 7.96513 30.3747 8.35445 30.1123 8.73108C29.8542 9.10771 29.5008 9.38912 29.0522 9.57532C29.5601 9.73612 29.9515 10.0027 30.2266 10.3751C30.5059 10.7475 30.6455 11.2024 30.6455 11.7399C30.6455 12.5693 30.3747 13.2273 29.833 13.714C29.2913 14.2006 28.5868 14.444 27.7192 14.444C26.8517 14.444 26.145 14.2091 25.5991 13.7394C25.0575 13.2697 24.7866 12.6497 24.7866 11.8795H25.9673C25.9673 12.3662 26.126 12.7555 26.4434 13.0475C26.7607 13.3395 27.186 13.4855 27.7192 13.4855C28.2863 13.4855 28.7201 13.3374 29.0205 13.0411C29.321 12.7449 29.4712 12.3196 29.4712 11.7653C29.4712 11.2278 29.3062 10.8152 28.9761 10.5275C28.646 10.2397 28.1699 10.0916 27.5479 10.0831H26.6655V9.12463ZM33.5527 8.2804C34.0732 7.6414 34.7503 7.3219 35.584 7.3219C37.0355 7.3219 37.7676 8.14075 37.7803 9.77844V14.317H36.606V9.77209C36.6017 9.27698 36.4875 8.91093 36.2632 8.67395C36.0431 8.43697 35.6982 8.31848 35.2285 8.31848C34.8477 8.31848 34.5133 8.42004 34.2256 8.62317C33.9378 8.82629 33.7135 9.0929 33.5527 9.42297V14.317H32.3784V4.56702H33.5527V8.2804ZM46.502 14.317H45.3213V6.49036L42.9536 7.35999V6.29358L46.3179 5.0304H46.502V14.317ZM50.4819 9.68323L50.9517 5.07483H55.687V6.16028H51.9482L51.6689 8.6803C52.1217 8.4137 52.6359 8.2804 53.2114 8.2804C54.0535 8.2804 54.7222 8.55969 55.2173 9.11829C55.7124 9.67265 55.96 10.4238 55.96 11.3717C55.96 12.3239 55.7018 13.075 55.1855 13.6251C54.6735 14.171 53.9562 14.444 53.0337 14.444C52.217 14.444 51.5505 14.2176 51.0342 13.7648C50.5179 13.312 50.2238 12.6857 50.1519 11.8859H51.2627C51.3346 12.4148 51.5229 12.8147 51.8276 13.0856C52.1323 13.3522 52.5343 13.4855 53.0337 13.4855C53.5796 13.4855 54.007 13.2993 54.3159 12.9269C54.6291 12.5545 54.7856 12.0403 54.7856 11.3844C54.7856 10.7666 54.6164 10.2714 54.2778 9.89905C53.9435 9.52242 53.4971 9.33411 52.9385 9.33411C52.4264 9.33411 52.0244 9.44625 51.7324 9.67053L51.4214 9.92444L50.4819 9.68323ZM58.4673 7.44885L58.499 8.21057C59.0026 7.61812 59.6818 7.3219 60.5366 7.3219C61.4972 7.3219 62.151 7.69006 62.498 8.42639C62.7266 8.09631 63.0228 7.82971 63.3867 7.62659C63.7549 7.42346 64.1886 7.3219 64.688 7.3219C66.1945 7.3219 66.9604 8.11959 66.9858 9.71497V14.317H65.8115V9.78479C65.8115 9.2939 65.6994 8.92786 65.4751 8.68665C65.2508 8.4412 64.8742 8.31848 64.3452 8.31848C63.9093 8.31848 63.5475 8.44967 63.2598 8.71204C62.972 8.97017 62.8049 9.3193 62.7583 9.7594V14.317H61.5776V9.81653C61.5776 8.81783 61.0889 8.31848 60.1113 8.31848C59.3411 8.31848 58.8143 8.64644 58.5308 9.30237V14.317H57.3564V7.44885H58.4673ZM70.0391 14.317H68.8647V7.44885H70.0391V14.317ZM68.7695 5.62708C68.7695 5.43665 68.8267 5.27584 68.9409 5.14465C69.0594 5.01347 69.2329 4.94788 69.4614 4.94788C69.6899 4.94788 69.8634 5.01347 69.9819 5.14465C70.1004 5.27584 70.1597 5.43665 70.1597 5.62708C70.1597 5.8175 70.1004 5.9762 69.9819 6.10315C69.8634 6.2301 69.6899 6.29358 69.4614 6.29358C69.2329 6.29358 69.0594 6.2301 68.9409 6.10315C68.8267 5.9762 68.7695 5.8175 68.7695 5.62708ZM73.0352 7.44885L73.0732 8.31213C73.598 7.65198 74.2835 7.3219 75.1299 7.3219C76.5814 7.3219 77.3135 8.14075 77.3262 9.77844V14.317H76.1519V9.77209C76.1476 9.27698 76.0334 8.91093 75.8091 8.67395C75.589 8.43697 75.2441 8.31848 74.7744 8.31848C74.3936 8.31848 74.0592 8.42004 73.7715 8.62317C73.4837 8.82629 73.2594 9.0929 73.0986 9.42297V14.317H71.9243V7.44885H73.0352Z" fill="#0C0B0B"/>
<path d="M8.23389 0.95105C3.82251 0.95105 0.233887 4.53967 0.233887 8.95105C0.233887 13.3624 3.82251 16.951 8.23389 16.951C12.6453 16.951 16.2339 13.3624 16.2339 8.95105C16.2339 4.53967 12.6453 0.95105 8.23389 0.95105ZM12.0386 13.089C11.9086 13.219 11.7379 13.2844 11.5673 13.2844C11.3966 13.2844 11.2258 13.219 11.0959 13.089L7.76257 9.75574C7.63721 9.6311 7.56726 9.46167 7.56726 9.28442V4.95105C7.56726 4.5824 7.86584 4.28442 8.23389 4.28442C8.60193 4.28442 8.90051 4.5824 8.90051 4.95105V9.00842L12.0386 12.1464C12.2992 12.4071 12.2992 12.8284 12.0386 13.089Z" fill="#0C0B0B"/>
</svg>
