<svg width="78" height="17" viewBox="0 0 78 17" fill="none" xmlns="http://www.w3.org/2000/svg">
<path d="M25.6875 9.00024L26.1572 4.39185H30.8926V5.47729H27.1538L26.8745 7.99731C27.3273 7.73071 27.8415 7.59741 28.417 7.59741C29.2591 7.59741 29.9277 7.87671 30.4229 8.4353C30.918 8.98966 31.1655 9.7408 31.1655 10.6887C31.1655 11.6409 30.9074 12.392 30.3911 12.9421C29.8791 13.488 29.1618 13.761 28.2393 13.761C27.4225 13.761 26.756 13.5346 26.2397 13.0818C25.7235 12.629 25.4294 12.0027 25.3574 11.2029H26.4683C26.5402 11.7319 26.7285 12.1318 27.0332 12.4026C27.3379 12.6692 27.7399 12.8025 28.2393 12.8025C28.7852 12.8025 29.2126 12.6163 29.5215 12.2439C29.8346 11.8715 29.9912 11.3573 29.9912 10.7014C29.9912 10.0836 29.8219 9.58846 29.4834 9.21606C29.1491 8.83944 28.7026 8.65112 28.144 8.65112C27.632 8.65112 27.23 8.76326 26.938 8.98755L26.627 9.24146L25.6875 9.00024ZM33.7427 7.59741C34.2632 6.95841 34.9403 6.63892 35.7739 6.63892C37.2254 6.63892 37.9575 7.45776 37.9702 9.09546V13.634H36.7959V9.08911C36.7917 8.59399 36.6774 8.22795 36.4531 7.99097C36.2331 7.75399 35.8882 7.6355 35.4185 7.6355C35.0376 7.6355 34.7033 7.73706 34.4155 7.94019C34.1278 8.14331 33.9035 8.40991 33.7427 8.73999V13.634H32.5684V3.88403H33.7427V7.59741ZM44.54 8.44165H45.4224C45.9767 8.43319 46.4126 8.28719 46.73 8.00366C47.0474 7.72013 47.2061 7.33716 47.2061 6.85474C47.2061 5.7714 46.6665 5.22974 45.5874 5.22974C45.0796 5.22974 44.6733 5.37573 44.3687 5.66772C44.0682 5.95549 43.918 6.33846 43.918 6.81665H42.7437C42.7437 6.08455 43.0103 5.47729 43.5435 4.99487C44.0809 4.50822 44.7622 4.26489 45.5874 4.26489C46.4591 4.26489 47.1426 4.49552 47.6377 4.95679C48.1328 5.41805 48.3804 6.05916 48.3804 6.88013C48.3804 7.28215 48.2492 7.67147 47.9868 8.0481C47.7287 8.42472 47.3753 8.70614 46.9268 8.89233C47.4346 9.05314 47.826 9.31974 48.1011 9.69214C48.3804 10.0645 48.52 10.5194 48.52 11.0569C48.52 11.8863 48.2492 12.5444 47.7075 13.031C47.1659 13.5177 46.4613 13.761 45.5938 13.761C44.7262 13.761 44.0195 13.5261 43.4736 13.0564C42.932 12.5867 42.6611 11.9667 42.6611 11.1965H43.8418C43.8418 11.6832 44.0005 12.0725 44.3179 12.3645C44.6353 12.6565 45.0605 12.8025 45.5938 12.8025C46.1608 12.8025 46.5946 12.6544 46.895 12.3582C47.1955 12.0619 47.3457 11.6366 47.3457 11.0823C47.3457 10.5448 47.1807 10.1322 46.8506 9.84448C46.5205 9.55672 46.0444 9.40861 45.4224 9.40015H44.54V8.44165ZM50.6719 9.00024L51.1416 4.39185H55.877V5.47729H52.1382L51.8589 7.99731C52.3117 7.73071 52.8258 7.59741 53.4014 7.59741C54.2435 7.59741 54.9121 7.87671 55.4072 8.4353C55.9023 8.98966 56.1499 9.7408 56.1499 10.6887C56.1499 11.6409 55.8918 12.392 55.3755 12.9421C54.8634 13.488 54.1462 13.761 53.2236 13.761C52.4069 13.761 51.7404 13.5346 51.2241 13.0818C50.7078 12.629 50.4137 12.0027 50.3418 11.2029H51.4526C51.5246 11.7319 51.7129 12.1318 52.0176 12.4026C52.3223 12.6692 52.7243 12.8025 53.2236 12.8025C53.7695 12.8025 54.1969 12.6163 54.5059 12.2439C54.819 11.8715 54.9756 11.3573 54.9756 10.7014C54.9756 10.0836 54.8063 9.58846 54.4678 9.21606C54.1335 8.83944 53.687 8.65112 53.1284 8.65112C52.6164 8.65112 52.2144 8.76326 51.9224 8.98755L51.6113 9.24146L50.6719 9.00024ZM58.6572 6.76587L58.689 7.52759C59.1925 6.93514 59.8717 6.63892 60.7266 6.63892C61.6872 6.63892 62.341 7.00708 62.688 7.74341C62.9165 7.41333 63.2127 7.14673 63.5767 6.9436C63.9448 6.74048 64.3786 6.63892 64.8779 6.63892C66.3844 6.63892 67.1504 7.4366 67.1758 9.03198V13.634H66.0015V9.10181C66.0015 8.61092 65.8893 8.24487 65.665 8.00366C65.4408 7.75822 65.0641 7.6355 64.5352 7.6355C64.0993 7.6355 63.7375 7.76668 63.4497 8.02905C63.1619 8.28719 62.9948 8.63631 62.9482 9.07642V13.634H61.7676V9.13354C61.7676 8.13485 61.2788 7.6355 60.3013 7.6355C59.5311 7.6355 59.0042 7.96346 58.7207 8.61938V13.634H57.5464V6.76587H58.6572ZM70.229 13.634H69.0547V6.76587H70.229V13.634ZM68.9595 4.94409C68.9595 4.75366 69.0166 4.59285 69.1309 4.46167C69.2493 4.33049 69.4229 4.26489 69.6514 4.26489C69.8799 4.26489 70.0534 4.33049 70.1719 4.46167C70.2904 4.59285 70.3496 4.75366 70.3496 4.94409C70.3496 5.13452 70.2904 5.29321 70.1719 5.42017C70.0534 5.54712 69.8799 5.6106 69.6514 5.6106C69.4229 5.6106 69.2493 5.54712 69.1309 5.42017C69.0166 5.29321 68.9595 5.13452 68.9595 4.94409ZM73.2251 6.76587L73.2632 7.62915C73.7879 6.96899 74.4735 6.63892 75.3198 6.63892C76.7713 6.63892 77.5034 7.45776 77.5161 9.09546V13.634H76.3418V9.08911C76.3376 8.59399 76.2233 8.22795 75.999 7.99097C75.779 7.75399 75.4341 7.6355 74.9644 7.6355C74.5835 7.6355 74.2492 7.73706 73.9614 7.94019C73.6737 8.14331 73.4494 8.40991 73.2886 8.73999V13.634H72.1143V6.76587H73.2251Z" fill="#0C0B0B"/>
<path d="M8.42383 0.268066C4.01245 0.268066 0.423828 3.85669 0.423828 8.26807C0.423828 12.6794 4.01245 16.2681 8.42383 16.2681C12.8352 16.2681 16.4238 12.6794 16.4238 8.26807C16.4238 3.85669 12.8352 0.268066 8.42383 0.268066ZM12.2285 12.406C12.0985 12.536 11.9279 12.6014 11.7572 12.6014C11.5865 12.6014 11.4158 12.536 11.2859 12.406L7.95251 9.07275C7.82715 8.94812 7.7572 8.77869 7.7572 8.60144V4.26807C7.7572 3.89941 8.05579 3.60144 8.42383 3.60144C8.79187 3.60144 9.09045 3.89941 9.09045 4.26807V8.32544L12.2285 11.4634C12.4891 11.7241 12.4891 12.1454 12.2285 12.406Z" fill="#0C0B0B"/>
</svg>
