<svg width="78" height="17" viewBox="0 0 78 17" fill="none" xmlns="http://www.w3.org/2000/svg">
<path d="M29.3765 4.75146V5.74805H29.1606C28.2466 5.76497 27.5187 6.03581 26.9771 6.56055C26.4354 7.08529 26.1222 7.82373 26.0376 8.77588C26.5243 8.21729 27.1886 7.93799 28.0308 7.93799C28.8348 7.93799 29.4759 8.22152 29.9541 8.78857C30.4365 9.35563 30.6777 10.0877 30.6777 10.9849C30.6777 11.937 30.4175 12.6987 29.897 13.27C29.3807 13.8413 28.6867 14.127 27.8149 14.127C26.9305 14.127 26.2132 13.7884 25.6631 13.1113C25.113 12.43 24.8379 11.554 24.8379 10.4834V10.0327C24.8379 8.33154 25.1997 7.03239 25.9233 6.13525C26.6512 5.23389 27.7324 4.77262 29.167 4.75146H29.3765ZM27.834 8.91553C27.432 8.91553 27.0617 9.03613 26.7231 9.27734C26.3846 9.51855 26.1497 9.82113 26.0186 10.1851V10.6167C26.0186 11.3784 26.1899 11.992 26.5327 12.4575C26.8755 12.923 27.3029 13.1558 27.8149 13.1558C28.3439 13.1558 28.7586 12.9611 29.0591 12.5718C29.3638 12.1825 29.5161 11.6725 29.5161 11.042C29.5161 10.4072 29.3617 9.89518 29.0527 9.50586C28.748 9.1123 28.3418 8.91553 27.834 8.91553ZM33.3628 7.96338C33.8833 7.32438 34.5604 7.00488 35.394 7.00488C36.8455 7.00488 37.5776 7.82373 37.5903 9.46143V14H36.416V9.45508C36.4118 8.95996 36.2975 8.59391 36.0732 8.35693C35.8532 8.11995 35.5083 8.00146 35.0386 8.00146C34.6577 8.00146 34.3234 8.10303 34.0356 8.30615C33.7479 8.50928 33.5236 8.77588 33.3628 9.10596V14H32.1885V4.25H33.3628V7.96338ZM44.1602 8.80762H45.0425C45.5968 8.79915 46.0327 8.65316 46.3501 8.36963C46.6675 8.0861 46.8262 7.70312 46.8262 7.2207C46.8262 6.13737 46.2866 5.5957 45.2075 5.5957C44.6997 5.5957 44.2935 5.7417 43.9888 6.03369C43.6883 6.32145 43.5381 6.70443 43.5381 7.18262H42.3638C42.3638 6.45052 42.6304 5.84326 43.1636 5.36084C43.701 4.87419 44.3823 4.63086 45.2075 4.63086C46.0793 4.63086 46.7627 4.86149 47.2578 5.32275C47.7529 5.78402 48.0005 6.42513 48.0005 7.24609C48.0005 7.64811 47.8693 8.03743 47.6069 8.41406C47.3488 8.79069 46.9954 9.0721 46.5469 9.2583C47.0547 9.41911 47.4461 9.68571 47.7212 10.0581C48.0005 10.4305 48.1401 10.8854 48.1401 11.4229C48.1401 12.2523 47.8693 12.9103 47.3276 13.397C46.786 13.8836 46.0814 14.127 45.2139 14.127C44.3464 14.127 43.6396 13.8921 43.0938 13.4224C42.5521 12.9526 42.2812 12.3327 42.2812 11.5625H43.4619C43.4619 12.0492 43.6206 12.4385 43.938 12.7305C44.2554 13.0225 44.6807 13.1685 45.2139 13.1685C45.7809 13.1685 46.2147 13.0203 46.5151 12.7241C46.8156 12.4279 46.9658 12.0026 46.9658 11.4482C46.9658 10.9108 46.8008 10.4982 46.4707 10.2104C46.1406 9.92269 45.6646 9.77458 45.0425 9.76611H44.1602V8.80762ZM55.5479 10.0581C55.5479 11.4334 55.313 12.4554 54.8433 13.124C54.3735 13.7926 53.6393 14.127 52.6406 14.127C51.6546 14.127 50.9246 13.8011 50.4507 13.1494C49.9767 12.4935 49.7313 11.516 49.7144 10.2168V8.64893C49.7144 7.29053 49.9492 6.28125 50.4189 5.62109C50.8887 4.96094 51.625 4.63086 52.6279 4.63086C53.6224 4.63086 54.3545 4.95036 54.8242 5.58936C55.2939 6.22412 55.5352 7.20589 55.5479 8.53467V10.0581ZM54.3735 8.45215C54.3735 7.45768 54.2339 6.73405 53.9546 6.28125C53.6753 5.82422 53.2331 5.5957 52.6279 5.5957C52.027 5.5957 51.589 5.8221 51.314 6.2749C51.0389 6.7277 50.8971 7.42383 50.8887 8.36328V10.2422C50.8887 11.2409 51.0326 11.9793 51.3203 12.4575C51.6123 12.9315 52.0524 13.1685 52.6406 13.1685C53.2204 13.1685 53.6499 12.9442 53.9292 12.4956C54.2127 12.047 54.3608 11.3403 54.3735 10.3755V8.45215ZM58.2773 7.13184L58.3091 7.89355C58.8127 7.30111 59.4919 7.00488 60.3467 7.00488C61.3073 7.00488 61.9611 7.37305 62.3081 8.10938C62.5366 7.7793 62.8328 7.5127 63.1968 7.30957C63.5649 7.10645 63.9987 7.00488 64.498 7.00488C66.0046 7.00488 66.7705 7.80257 66.7959 9.39795V14H65.6216V9.46777C65.6216 8.97689 65.5094 8.61084 65.2852 8.36963C65.0609 8.12419 64.6842 8.00146 64.1553 8.00146C63.7194 8.00146 63.3576 8.13265 63.0698 8.39502C62.7821 8.65316 62.6149 9.00228 62.5684 9.44238V14H61.3877V9.49951C61.3877 8.50081 60.8989 8.00146 59.9214 8.00146C59.1512 8.00146 58.6243 8.32943 58.3408 8.98535V14H57.1665V7.13184H58.2773ZM69.8491 14H68.6748V7.13184H69.8491V14ZM68.5796 5.31006C68.5796 5.11963 68.6367 4.95882 68.751 4.82764C68.8695 4.69645 69.043 4.63086 69.2715 4.63086C69.5 4.63086 69.6735 4.69645 69.792 4.82764C69.9105 4.95882 69.9697 5.11963 69.9697 5.31006C69.9697 5.50049 69.9105 5.65918 69.792 5.78613C69.6735 5.91309 69.5 5.97656 69.2715 5.97656C69.043 5.97656 68.8695 5.91309 68.751 5.78613C68.6367 5.65918 68.5796 5.50049 68.5796 5.31006ZM72.8452 7.13184L72.8833 7.99512C73.408 7.33496 74.0936 7.00488 74.9399 7.00488C76.3914 7.00488 77.1235 7.82373 77.1362 9.46143V14H75.9619V9.45508C75.9577 8.95996 75.8434 8.59391 75.6191 8.35693C75.3991 8.11995 75.0542 8.00146 74.5845 8.00146C74.2036 8.00146 73.8693 8.10303 73.5815 8.30615C73.2938 8.50928 73.0695 8.77588 72.9087 9.10596V14H71.7344V7.13184H72.8452Z" fill="#0C0B0B"/>
<path d="M8.04395 0.634033C3.63257 0.634033 0.0439453 4.22266 0.0439453 8.63403C0.0439453 13.0454 3.63257 16.634 8.04395 16.634C12.4553 16.634 16.0439 13.0454 16.0439 8.63403C16.0439 4.22266 12.4553 0.634033 8.04395 0.634033ZM11.8486 12.772C11.7186 12.902 11.548 12.9674 11.3773 12.9674C11.2067 12.9674 11.0359 12.902 10.906 12.772L7.57263 9.43872C7.44727 9.31409 7.37732 9.14465 7.37732 8.96741V4.63403C7.37732 4.26538 7.6759 3.96741 8.04395 3.96741C8.41199 3.96741 8.71057 4.26538 8.71057 4.63403V8.69141L11.8486 11.8293C12.1093 12.0901 12.1093 12.5114 11.8486 12.772Z" fill="#0C0B0B"/>
</svg>
