<svg width="78" height="17" viewBox="0 0 78 17" fill="none" xmlns="http://www.w3.org/2000/svg">
<path d="M30.9248 4.96844L27.0972 13.5505H25.8657L29.6807 5.27313H24.6787V4.30829H30.9248V4.96844ZM33.5527 7.51385C34.0732 6.87486 34.7503 6.55536 35.584 6.55536C37.0355 6.55536 37.7676 7.37421 37.7803 9.0119V13.5505H36.606V9.00555C36.6017 8.51044 36.4875 8.14439 36.2632 7.90741C36.0431 7.67043 35.6982 7.55194 35.2285 7.55194C34.8477 7.55194 34.5133 7.6535 34.2256 7.85663C33.9378 8.05975 33.7135 8.32635 33.5527 8.65643V13.5505H32.3784V3.80048H33.5527V7.51385ZM47.6001 10.4465H48.8823V11.405H47.6001V13.5505H46.4194V11.405H42.2109V10.7131L46.3496 4.30829H47.6001V10.4465ZM43.5439 10.4465H46.4194V5.91425L46.2798 6.16815L43.5439 10.4465ZM55.7378 9.60858C55.7378 10.9839 55.5029 12.0059 55.0332 12.6745C54.5635 13.3431 53.8293 13.6774 52.8306 13.6774C51.8446 13.6774 51.1146 13.3516 50.6406 12.6999C50.1667 12.044 49.9212 11.0664 49.9043 9.76727V8.1994C49.9043 6.841 50.1392 5.83173 50.6089 5.17157C51.0786 4.51141 51.8149 4.18134 52.8179 4.18134C53.8123 4.18134 54.5444 4.50083 55.0142 5.13983C55.4839 5.7746 55.7251 6.75637 55.7378 8.08514V9.60858ZM54.5635 8.00262C54.5635 7.00816 54.4238 6.28453 54.1445 5.83173C53.8652 5.37469 53.423 5.14618 52.8179 5.14618C52.217 5.14618 51.779 5.37258 51.5039 5.82538C51.2288 6.27818 51.0871 6.9743 51.0786 7.91376V9.79266C51.0786 10.7914 51.2225 11.5298 51.5103 12.008C51.8022 12.482 52.2424 12.7189 52.8306 12.7189C53.4103 12.7189 53.8398 12.4946 54.1191 12.0461C54.4027 11.5975 54.5508 10.8908 54.5635 9.92596V8.00262ZM58.4673 6.68231L58.499 7.44403C59.0026 6.85158 59.6818 6.55536 60.5366 6.55536C61.4972 6.55536 62.151 6.92352 62.498 7.65985C62.7266 7.32977 63.0228 7.06317 63.3867 6.86005C63.7549 6.65692 64.1886 6.55536 64.688 6.55536C66.1945 6.55536 66.9604 7.35305 66.9858 8.94843V13.5505H65.8115V9.01825C65.8115 8.52736 65.6994 8.16132 65.4751 7.9201C65.2508 7.67466 64.8742 7.55194 64.3452 7.55194C63.9093 7.55194 63.5475 7.68313 63.2598 7.9455C62.972 8.20363 62.8049 8.55275 62.7583 8.99286V13.5505H61.5776V9.04999C61.5776 8.05129 61.0889 7.55194 60.1113 7.55194C59.3411 7.55194 58.8143 7.8799 58.5308 8.53583V13.5505H57.3564V6.68231H58.4673ZM70.0391 13.5505H68.8647V6.68231H70.0391V13.5505ZM68.7695 4.86053C68.7695 4.6701 68.8267 4.5093 68.9409 4.37811C69.0594 4.24693 69.2329 4.18134 69.4614 4.18134C69.6899 4.18134 69.8634 4.24693 69.9819 4.37811C70.1004 4.5093 70.1597 4.6701 70.1597 4.86053C70.1597 5.05096 70.1004 5.20966 69.9819 5.33661C69.8634 5.46356 69.6899 5.52704 69.4614 5.52704C69.2329 5.52704 69.0594 5.46356 68.9409 5.33661C68.8267 5.20966 68.7695 5.05096 68.7695 4.86053ZM73.0352 6.68231L73.0732 7.54559C73.598 6.88544 74.2835 6.55536 75.1299 6.55536C76.5814 6.55536 77.3135 7.37421 77.3262 9.0119V13.5505H76.1519V9.00555C76.1476 8.51044 76.0334 8.14439 75.8091 7.90741C75.589 7.67043 75.2441 7.55194 74.7744 7.55194C74.3936 7.55194 74.0592 7.6535 73.7715 7.85663C73.4837 8.05975 73.2594 8.32635 73.0986 8.65643V13.5505H71.9243V6.68231H73.0352Z" fill="#0C0B0B"/>
<path d="M8.23389 0.184509C3.82251 0.184509 0.233887 3.77313 0.233887 8.18451C0.233887 12.5959 3.82251 16.1845 8.23389 16.1845C12.6453 16.1845 16.2339 12.5959 16.2339 8.18451C16.2339 3.77313 12.6453 0.184509 8.23389 0.184509ZM12.0386 12.3224C11.9086 12.4525 11.7379 12.5179 11.5673 12.5179C11.3966 12.5179 11.2258 12.4525 11.0959 12.3224L7.76257 8.9892C7.63721 8.86456 7.56726 8.69513 7.56726 8.51788V4.18451C7.56726 3.81586 7.86584 3.51788 8.23389 3.51788C8.60193 3.51788 8.90051 3.81586 8.90051 4.18451V8.24188L12.0386 11.3798C12.2992 11.6406 12.2992 12.0618 12.0386 12.3224Z" fill="#0C0B0B"/>
</svg>
