<svg width="41" height="17" viewBox="0 0 41 17" fill="none" xmlns="http://www.w3.org/2000/svg">
<path d="M29.4917 11.4465H30.7739V12.405H29.4917V14.5505H28.311V12.405H24.1025V11.7131L28.2412 5.30829H29.4917V11.4465ZM25.4355 11.4465H28.311V6.91425L28.1714 7.16815L25.4355 11.4465ZM31.9165 16.3913L31.25 15.9343C31.6478 15.3799 31.8551 14.8086 31.8721 14.2204V13.1603H33.021V14.0807C33.021 14.5082 32.9152 14.9356 32.7036 15.363C32.4963 15.7904 32.2339 16.1332 31.9165 16.3913ZM38.9941 5.30194V6.29852H38.7783C37.8643 6.31545 37.1364 6.58628 36.5947 7.11102C36.0531 7.63576 35.7399 8.37421 35.6553 9.32635C36.1419 8.76776 36.8063 8.48846 37.6484 8.48846C38.4525 8.48846 39.0936 8.77199 39.5718 9.33905C40.0542 9.90611 40.2954 10.6382 40.2954 11.5353C40.2954 12.4875 40.0352 13.2492 39.5146 13.8205C38.9984 14.3918 38.3044 14.6774 37.4326 14.6774C36.5482 14.6774 35.8309 14.3389 35.2808 13.6618C34.7306 12.9805 34.4556 12.1045 34.4556 11.0339V10.5832C34.4556 8.88202 34.8174 7.58287 35.541 6.68573C36.2689 5.78436 37.3501 5.3231 38.7847 5.30194H38.9941ZM37.4517 9.466C37.0496 9.466 36.6794 9.58661 36.3408 9.82782C36.0023 10.069 35.7674 10.3716 35.6362 10.7355V11.1672C35.6362 11.9289 35.8076 12.5425 36.1504 13.008C36.4932 13.4735 36.9206 13.7062 37.4326 13.7062C37.9616 13.7062 38.3763 13.5116 38.6768 13.1223C38.9814 12.7329 39.1338 12.223 39.1338 11.5925C39.1338 10.9577 38.9793 10.4457 38.6704 10.0563C38.3657 9.66278 37.9595 9.466 37.4517 9.466Z" fill="#0C0B0B"/>
<g clip-path="url(#clip0_0_1)">
<path d="M12.511 7.97701C12.4393 9.0191 11.8451 9.7507 11.159 10.0608C10.4315 10.3894 9.69621 10.2081 9.3291 9.60951C8.72804 8.62932 9.14106 7.94713 9.54044 7.28738C9.9933 6.53929 10.5066 5.69135 10.0143 4.04242C9.62562 2.74063 8.86443 1.64773 7.75183 0.794041C7.40499 0.527947 7.07605 0.327822 6.8091 0.184509C7.18195 1.09207 7.66681 2.78092 7.16034 4.64679C6.83912 5.83032 5.99017 6.7272 5.16917 7.59454C4.08783 8.73698 2.96962 9.91829 2.96962 11.8058C2.96962 13.27 3.47977 14.4364 4.48585 15.2727C5.24772 15.9059 6.02515 16.1525 6.03289 16.1545H7.88798L7.84915 16.1537C7.84199 16.1482 7.13525 15.5903 7.12308 14.9505C7.11741 14.6515 7.27434 14.3647 7.5895 14.098C8.0629 13.6974 8.32308 13.2661 8.38498 12.7794C8.42283 12.4818 8.38456 12.1671 8.26824 11.8275C9.05342 12.1568 9.86561 12.8758 10.1408 13.7683C10.388 14.5699 10.1594 15.3942 9.48024 16.1545H11.5104C12.8403 15.1126 13.589 13.8641 13.7357 12.4436C13.9228 10.6324 13.0948 8.92651 12.511 7.97701Z" fill="#0C0B0B"/>
<path d="M7.88799 16.1545L9.45351 16.1845C9.46259 16.1745 9.47129 16.1645 9.48023 16.1545H7.88799Z" fill="#0C0B0B"/>
</g>
<defs>
<clipPath id="clip0_0_1">
<rect width="15.2" height="16" fill="white" transform="translate(0.766113 0.184509)"/>
</clipPath>
</defs>
</svg>
