<svg width="40" height="17" viewBox="0 0 40 17" fill="none" xmlns="http://www.w3.org/2000/svg">
<path d="M29.3018 11.896H30.584V12.8545H29.3018V15H28.1211V12.8545H23.9126V12.1626L28.0513 5.75781H29.3018V11.896ZM25.2456 11.896H28.1211V7.36377L27.9814 7.61768L25.2456 11.896ZM31.7266 16.8408L31.0601 16.3838C31.4578 15.8294 31.6652 15.2581 31.6821 14.6699V13.6099H32.8311V14.5303C32.8311 14.9577 32.7253 15.3851 32.5137 15.8125C32.3063 16.2399 32.0439 16.5827 31.7266 16.8408ZM38.6963 10.9375C38.4508 11.2295 38.1567 11.4644 37.814 11.6421C37.4754 11.8198 37.103 11.9087 36.6968 11.9087C36.1636 11.9087 35.6981 11.7775 35.3003 11.5151C34.9067 11.2528 34.6021 10.8846 34.3862 10.4106C34.1704 9.93245 34.0625 9.4056 34.0625 8.83008C34.0625 8.21224 34.1789 7.65576 34.4116 7.16064C34.6486 6.66553 34.9829 6.28678 35.4146 6.02441C35.8462 5.76204 36.3498 5.63086 36.9253 5.63086C37.8394 5.63086 38.5588 5.97363 39.0835 6.65918C39.6125 7.34049 39.877 8.27148 39.877 9.45215V9.79492C39.877 11.5934 39.5215 12.9074 38.8105 13.7368C38.0996 14.562 37.0269 14.9852 35.5923 15.0063H35.3638V14.0161H35.6113C36.5804 13.9992 37.3252 13.7474 37.8457 13.2607C38.3662 12.7699 38.6497 11.9954 38.6963 10.9375ZM36.8872 10.9375C37.2808 10.9375 37.6426 10.8169 37.9727 10.5757C38.307 10.3345 38.5503 10.0361 38.7026 9.68066V9.21094C38.7026 8.44076 38.5355 7.81445 38.2012 7.33203C37.8669 6.84961 37.4437 6.6084 36.9316 6.6084C36.4154 6.6084 36.0007 6.80729 35.6875 7.20508C35.3743 7.59863 35.2178 8.11914 35.2178 8.7666C35.2178 9.39714 35.368 9.91764 35.6685 10.3281C35.9731 10.7344 36.3794 10.9375 36.8872 10.9375Z" fill="#0C0B0B"/>
<g clip-path="url(#clip0_0_1)">
<path d="M12.3211 8.42653C12.2493 9.46863 11.6551 10.2002 10.969 10.5103C10.2416 10.8389 9.50627 10.6577 9.13916 10.059C8.5381 9.07885 8.95111 8.39666 9.3505 7.73691C9.80335 6.98881 10.3167 6.14088 9.82434 4.49194C9.43567 3.19016 8.67449 2.09725 7.56189 1.24356C7.21505 0.977471 6.88611 0.777346 6.61916 0.634033C6.99201 1.5416 7.47686 3.23044 6.9704 5.09631C6.64918 6.27985 5.80023 7.17672 4.97922 8.04406C3.89789 9.1865 2.77968 10.3678 2.77968 12.2553C2.77968 13.7195 3.28983 14.886 4.29591 15.7222C5.05778 16.3555 5.8352 16.6021 5.84295 16.604H7.69803L7.6592 16.6033C7.65205 16.5977 6.94531 16.0398 6.93314 15.4001C6.92747 15.101 7.08439 14.8142 7.39956 14.5475C7.87295 14.1469 8.13314 13.7156 8.19503 13.2289C8.23289 12.9313 8.19462 12.6167 8.0783 12.277C8.86348 12.6063 9.67567 13.3253 9.9509 14.2178C10.1981 15.0194 9.96943 15.8437 9.2903 16.604H11.3205C12.6504 15.5622 13.399 14.3136 13.5458 12.8931C13.7329 11.0819 12.9048 9.37603 12.3211 8.42653Z" fill="#0C0B0B"/>
<path d="M7.69805 16.604L9.26357 16.634C9.27265 16.6241 9.28135 16.614 9.29029 16.604H7.69805Z" fill="#0C0B0B"/>
</g>
<defs>
<clipPath id="clip0_0_1">
<rect width="15.2" height="16" fill="white" transform="translate(0.576172 0.634033)"/>
</clipPath>
</defs>
</svg>