<svg width="41" height="18" viewBox="0 0 41 18" fill="none" xmlns="http://www.w3.org/2000/svg">
<path d="M29.4917 12.213H30.7739V13.1715H29.4917V15.317H28.311V13.1715H24.1025V12.4796L28.2412 6.07483H29.4917V12.213ZM25.4355 12.213H28.311V7.68079L28.1714 7.93469L25.4355 12.213ZM31.9165 17.1578L31.25 16.7008C31.6478 16.1464 31.8551 15.5752 31.8721 14.9869V13.9269H33.021V14.8473C33.021 15.2747 32.9152 15.7021 32.7036 16.1295C32.4963 16.5569 32.2339 16.8997 31.9165 17.1578ZM40.3525 6.73499L36.5249 15.317H35.2935L39.1084 7.03967H34.1064V6.07483H40.3525V6.73499Z" fill="#0C0B0B"/>
<g clip-path="url(#clip0_0_1)">
<path d="M12.511 8.74355C12.4393 9.78564 11.8451 10.5172 11.159 10.8273C10.4315 11.156 9.69621 10.9747 9.3291 10.376C8.72804 9.39586 9.14106 8.71368 9.54044 8.05393C9.9933 7.30583 10.5066 6.45789 10.0143 4.80896C9.62562 3.50717 8.86443 2.41427 7.75183 1.56058C7.40499 1.29449 7.07605 1.09436 6.8091 0.95105C7.18195 1.85861 7.66681 3.54746 7.16034 5.41333C6.83912 6.59686 5.99017 7.49374 5.16917 8.36108C4.08783 9.50352 2.96962 10.6848 2.96962 12.5723C2.96962 14.0365 3.47977 15.203 4.48585 16.0392C5.24772 16.6725 6.02515 16.9191 6.03289 16.921H7.88798L7.84915 16.9203C7.84199 16.9147 7.13525 16.3569 7.12308 15.7171C7.11741 15.418 7.27434 15.1312 7.5895 14.8645C8.0629 14.4639 8.32308 14.0326 8.38498 13.546C8.42283 13.2483 8.38456 12.9337 8.26824 12.594C9.05342 12.9233 9.86561 13.6423 10.1408 14.5349C10.388 15.3364 10.1594 16.1607 9.48024 16.921H11.5104C12.8403 15.8792 13.589 14.6306 13.7357 13.2101C13.9228 11.3989 13.0948 9.69305 12.511 8.74355Z" fill="#0C0B0B"/>
<path d="M7.88799 16.921L9.45351 16.9511C9.46259 16.9411 9.47129 16.931 9.48023 16.921H7.88799Z" fill="#0C0B0B"/>
</g>
<defs>
<clipPath id="clip0_0_1">
<rect width="15.2" height="16" fill="white" transform="translate(0.766113 0.95105)"/>
</clipPath>
</defs>
</svg>
