<svg width="41" height="18" viewBox="0 0 41 18" fill="none" xmlns="http://www.w3.org/2000/svg">
<path d="M29.6816 12.213H30.9639V13.1715H29.6816V15.317H28.501V13.1715H24.2925V12.4796L28.4312 6.07483H29.6816V12.213ZM25.6255 12.213H28.501V7.68079L28.3613 7.93469L25.6255 12.213ZM32.1064 17.1578L31.4399 16.7008C31.8377 16.1464 32.0451 15.5752 32.062 14.9869V13.9269H33.2109V14.8473C33.2109 15.2747 33.1051 15.7021 32.8936 16.1295C32.6862 16.5569 32.4238 16.8997 32.1064 17.1578ZM40.1807 8.48694C40.1807 8.9482 40.0579 9.35868 39.8125 9.71838C39.5713 10.0781 39.2433 10.3595 38.8286 10.5626C39.311 10.77 39.6919 11.0726 39.9712 11.4703C40.2547 11.8681 40.3965 12.3188 40.3965 12.8224C40.3965 13.6222 40.1257 14.2591 39.584 14.733C39.0465 15.207 38.3377 15.444 37.4575 15.444C36.5688 15.444 35.8558 15.207 35.3184 14.733C34.7852 14.2548 34.5186 13.618 34.5186 12.8224C34.5186 12.323 34.654 11.8724 34.9248 11.4703C35.1999 11.0683 35.5786 10.7636 36.061 10.5563C35.6506 10.3531 35.3268 10.0717 35.0898 9.71204C34.8529 9.35234 34.7344 8.94397 34.7344 8.48694C34.7344 7.70829 34.984 7.09045 35.4834 6.63342C35.9827 6.17639 36.6408 5.94788 37.4575 5.94788C38.27 5.94788 38.9259 6.17639 39.4253 6.63342C39.9289 7.09045 40.1807 7.70829 40.1807 8.48694ZM39.2222 12.797C39.2222 12.2807 39.0571 11.8597 38.7271 11.5338C38.4012 11.208 37.9738 11.045 37.4448 11.045C36.9159 11.045 36.4906 11.2059 36.1689 11.5275C35.8516 11.8491 35.6929 12.2723 35.6929 12.797C35.6929 13.3217 35.8473 13.7343 36.1562 14.0348C36.4694 14.3352 36.9032 14.4855 37.4575 14.4855C38.0076 14.4855 38.4393 14.3352 38.7524 14.0348C39.0656 13.7301 39.2222 13.3175 39.2222 12.797ZM37.4575 6.91272C36.9963 6.91272 36.6217 7.0566 36.334 7.34436C36.0505 7.62789 35.9087 8.0151 35.9087 8.50598C35.9087 8.97571 36.0483 9.35657 36.3276 9.64856C36.6112 9.93632 36.9878 10.0802 37.4575 10.0802C37.9272 10.0802 38.3018 9.93632 38.5811 9.64856C38.8646 9.35657 39.0063 8.97571 39.0063 8.50598C39.0063 8.03625 38.8604 7.65328 38.5684 7.35706C38.2764 7.06083 37.9061 6.91272 37.4575 6.91272Z" fill="#0C0B0B"/>
<g clip-path="url(#clip0_0_1)">
<path d="M12.7009 8.74355C12.6292 9.78564 12.035 10.5172 11.3489 10.8273C10.6215 11.156 9.88615 10.9747 9.51904 10.376C8.91799 9.39586 9.331 8.71368 9.73038 8.05393C10.1832 7.30583 10.6966 6.45789 10.2042 4.80896C9.81556 3.50717 9.05437 2.41427 7.94177 1.56058C7.59493 1.29449 7.26599 1.09436 6.99904 0.95105C7.37189 1.85861 7.85675 3.54746 7.35028 5.41333C7.02906 6.59686 6.18012 7.49374 5.35911 8.36108C4.27777 9.50352 3.15956 10.6848 3.15956 12.5723C3.15956 14.0365 3.66971 15.203 4.67579 16.0392C5.43766 16.6725 6.21509 16.9191 6.22284 16.921H8.07792L8.03909 16.9203C8.03193 16.9147 7.32519 16.3569 7.31302 15.7171C7.30735 15.418 7.46428 15.1312 7.77944 14.8645C8.25284 14.4639 8.51302 14.0326 8.57492 13.546C8.61277 13.2483 8.5745 12.9337 8.45819 12.594C9.24336 12.9233 10.0556 13.6423 10.3308 14.5349C10.578 15.3364 10.3493 16.1607 9.67018 16.921H11.7004C13.0302 15.8792 13.7789 14.6306 13.9256 13.2101C14.1127 11.3989 13.2847 9.69305 12.7009 8.74355Z" fill="#0C0B0B"/>
<path d="M8.07793 16.921L9.64345 16.9511C9.65253 16.9411 9.66123 16.931 9.67017 16.921H8.07793Z" fill="#0C0B0B"/>
</g>
<defs>
<clipPath id="clip0_0_1">
<rect width="15.2" height="16" fill="white" transform="translate(0.956055 0.95105)"/>
</clipPath>
</defs>
</svg>
