<svg width="24" height="10" viewBox="0 0 24 10" fill="none" xmlns="http://www.w3.org/2000/svg">
<path d="M6.33838 2.83951C6.33838 3.30077 6.21566 3.71125 5.97021 4.07095C5.729 4.43065 5.40104 4.71207 4.98633 4.91519C5.46875 5.12255 5.84961 5.42512 6.12891 5.82291C6.41243 6.22069 6.5542 6.67138 6.5542 7.17496C6.5542 7.97476 6.28337 8.61164 5.7417 9.0856C5.20426 9.55956 4.49544 9.79654 3.61523 9.79654C2.72656 9.79654 2.01351 9.55956 1.47607 9.0856C0.942871 8.60741 0.67627 7.97053 0.67627 7.17496C0.67627 6.67561 0.811686 6.22492 1.08252 5.82291C1.35758 5.42089 1.73633 5.1162 2.21875 4.90884C1.80827 4.70572 1.48454 4.42431 1.24756 4.06461C1.01058 3.70491 0.89209 3.29654 0.89209 2.83951C0.89209 2.06086 1.14176 1.44302 1.64111 0.985992C2.14046 0.528961 2.7985 0.300446 3.61523 0.300446C4.42773 0.300446 5.08366 0.528961 5.58301 0.985992C6.08659 1.44302 6.33838 2.06086 6.33838 2.83951ZM5.37988 7.14957C5.37988 6.63329 5.21484 6.21223 4.88477 5.88638C4.55892 5.56054 4.13151 5.39761 3.60254 5.39761C3.07357 5.39761 2.64827 5.55842 2.32666 5.88004C2.00928 6.20165 1.85059 6.62483 1.85059 7.14957C1.85059 7.67431 2.00505 8.0869 2.31396 8.38736C2.62712 8.68782 3.06087 8.83804 3.61523 8.83804C4.16536 8.83804 4.59701 8.68782 4.91016 8.38736C5.22331 8.08267 5.37988 7.67007 5.37988 7.14957ZM3.61523 1.26529C3.15397 1.26529 2.77946 1.40917 2.4917 1.69693C2.20817 1.98046 2.06641 2.36767 2.06641 2.85855C2.06641 3.32828 2.20605 3.70914 2.48535 4.00113C2.76888 4.28889 3.14551 4.43277 3.61523 4.43277C4.08496 4.43277 4.45947 4.28889 4.73877 4.00113C5.0223 3.70914 5.16406 3.32828 5.16406 2.85855C5.16406 2.38882 5.01807 2.00585 4.72607 1.70963C4.43408 1.4134 4.0638 1.26529 3.61523 1.26529ZM9.74072 4.4772H10.623C11.1774 4.46874 11.6133 4.32274 11.9307 4.03922C12.248 3.75569 12.4067 3.37271 12.4067 2.89029C12.4067 1.80696 11.8672 1.26529 10.7881 1.26529C10.2803 1.26529 9.87402 1.41129 9.56934 1.70328C9.26888 1.99104 9.11865 2.37401 9.11865 2.8522H7.94434C7.94434 2.12011 8.21094 1.51285 8.74414 1.03043C9.28158 0.543772 9.96289 0.300446 10.7881 0.300446C11.6598 0.300446 12.3433 0.531077 12.8384 0.99234C13.3335 1.4536 13.5811 2.09472 13.5811 2.91568C13.5811 3.3177 13.4499 3.70702 13.1875 4.08365C12.9294 4.46028 12.576 4.74169 12.1274 4.92789C12.6353 5.08869 13.0267 5.3553 13.3018 5.72769C13.5811 6.10009 13.7207 6.555 13.7207 7.09244C13.7207 7.92186 13.4499 8.57991 12.9082 9.06656C12.3665 9.55321 11.6619 9.79654 10.7944 9.79654C9.92692 9.79654 9.22021 9.56168 8.67432 9.09195C8.13265 8.62222 7.86182 8.00227 7.86182 7.23209H9.04248C9.04248 7.71874 9.20117 8.10806 9.51855 8.40005C9.83594 8.69205 10.2612 8.83804 10.7944 8.83804C11.3615 8.83804 11.7952 8.68993 12.0957 8.39371C12.3962 8.09748 12.5464 7.67219 12.5464 7.11783C12.5464 6.58039 12.3813 6.1678 12.0513 5.88004C11.7212 5.59227 11.2451 5.44416 10.623 5.4357H9.74072V4.4772ZM15.2314 2.20474C15.2314 1.65038 15.4071 1.19335 15.7583 0.833649C16.1138 0.473948 16.5687 0.294098 17.123 0.294098C17.6859 0.294098 18.1408 0.476064 18.4878 0.839996C18.839 1.1997 19.0146 1.66731 19.0146 2.24283V2.69351C19.0146 3.25211 18.8369 3.70914 18.4814 4.06461C18.1302 4.41584 17.6816 4.59146 17.1357 4.59146C16.5856 4.59146 16.1307 4.41584 15.771 4.06461C15.4113 3.70914 15.2314 3.23729 15.2314 2.64908V2.20474ZM16.1074 2.69351C16.1074 3.02359 16.2005 3.29654 16.3867 3.51236C16.5729 3.72395 16.8226 3.82974 17.1357 3.82974C17.4362 3.82974 17.6774 3.72606 17.8594 3.51871C18.0456 3.31135 18.1387 3.02782 18.1387 2.66812V2.20474C18.1387 1.87466 18.0477 1.60172 17.8657 1.38589C17.6838 1.17007 17.4362 1.06216 17.123 1.06216C16.8099 1.06216 16.5623 1.17007 16.3804 1.38589C16.1984 1.60172 16.1074 1.88313 16.1074 2.23013V2.69351ZM19.7319 7.40347C19.7319 6.84911 19.9076 6.3942 20.2588 6.03873C20.6143 5.67903 21.0692 5.49918 21.6235 5.49918C22.1779 5.49918 22.6328 5.67691 22.9883 6.03238C23.3438 6.38785 23.5215 6.85969 23.5215 7.44791V7.89859C23.5215 8.45295 23.3438 8.90998 22.9883 9.26968C22.637 9.62515 22.1864 9.80289 21.6362 9.80289C21.0861 9.80289 20.6312 9.62727 20.2715 9.27603C19.9118 8.92056 19.7319 8.44872 19.7319 7.8605V7.40347ZM20.6079 7.89859C20.6079 8.2329 20.701 8.50797 20.8872 8.72379C21.0734 8.93537 21.3231 9.04117 21.6362 9.04117C21.9409 9.04117 22.1842 8.93749 22.3662 8.73013C22.5482 8.51854 22.6392 8.2329 22.6392 7.8732V7.40347C22.6392 7.06916 22.5461 6.79621 22.3599 6.58463C22.1779 6.37304 21.9325 6.26724 21.6235 6.26724C21.3231 6.26724 21.0776 6.37304 20.8872 6.58463C20.701 6.79198 20.6079 7.07339 20.6079 7.42886V7.89859ZM17.4023 8.97134L16.7358 8.5524L21.249 1.32877L21.9155 1.74771L17.4023 8.97134Z" fill="#0C0B0B"/>
</svg>
